<svg xmlns="http://www.w3.org/2000/svg" version="1.1" xmlns:xlink="http://www.w3.org/1999/xlink" xmlns:svgjs="http://svgjs.com/svgjs" width="500" height="340"><svg id="SvgjsSvg1000" data-name="Layer 1" xmlns="http://www.w3.org/2000/svg" viewBox="0 0 500 340"><defs><style>.cls-1{fill:#00f388;}</style></defs><title>Satsback_RGB_sign_green</title><path class="cls-1" d="M486.6,170A157.73,157.73,0,0,1,328.87,327.74h0a158,158,0,0,1-39.41-5l19.7-76.38a157.74,157.74,0,1,1-138-234.13h0a158,158,0,0,1,39.4,5L190.82,93.62a78.41,78.41,0,0,0-19.69-2.49h0A78.87,78.87,0,1,0,250,170h78.87a157,157,0,0,1-19.71,76.39,79.08,79.08,0,0,0,19.71,2.48h0A78.87,78.87,0,1,0,250,170H171.13a157.74,157.74,0,1,1,315.47,0Z"></path></svg><style>@media (prefers-color-scheme: light) { :root { filter: none; } }
</style></svg>